#!OML:ASF H:\Punching\Project 1\Capture day 1\Session 1\female.ASF
:FULLY-SPECIFIED
:DEGREES
2931
root 4.14982 15.5678 3.0133 -354.627 43.7199 -367.854
lowerback -7.01811 1.01499 6.38432
upperback -5.58244 1.1252 0.453402
thorax -1.75756 0.422227 -3.0495
lowerneck -13.2092 3.95399 10.4396
upperneck 41.4562 6.04625 -4.97205
head 18.2705 3.79446 -2.95555
rclavicle -6.54747e-015 -8.74653e-015
rhumerus -35.2413 -10.7275 -74.3819
rradius 28.7866
rwrist 8.08411
rhand -14.08 -6.71984
rfingers 7.12502
rthumb 12.052 -36.3528
lclavicle -6.54747e-015 -8.74653e-015
lhumerus -43.7648 7.60883 76.56
lradius 33.9052
lwrist -19.767
lhand -4.21084 9.31555
lfingers 7.12502
lthumb 21.5515 38.1364
rfemur 0.107447 5.20256 30.5479
rtibia 9.94195
rfoot -16.3203 -9.17187
rtoes 3.10979
lfemur -36.7301 -12.509 -9.26664
ltibia 20.9668
lfoot -19.7993 21.4911
ltoes -4.24888
2932
root 4.23741 15.5573 3.07911 -354.645 43.5338 -367.88
lowerback -7.14985 1.05768 6.38394
upperback -5.61422 1.17337 0.398828
thorax -1.71221 0.446413 -3.10136
lowerneck -13.1858 3.98571 10.4925
upperneck 41.495 6.09312 -4.98223
head 18.2977 3.8224 -2.96183
rclavicle -4.34841e-014 -3.22031e-014
rhumerus -35.3645 -10.6488 -74.6087
rradius 28.8903
rwrist 8.02629
rhand -14.0019 -6.66657
rfingers 7.12502
rthumb 12.1272 -36.2951
lclavicle -4.34841e-014 -3.22031e-014
lhumerus -43.982 8.04923 76.0652
lradius 33.2182
lwrist -20.2566
lhand -4.06613 9.42659
lfingers 7.12502
lthumb 21.6905 38.2315
rfemur 0.973463 5.22081 30.5142
rtibia 9.13609
rfoot -16.1724 -9.03301
rtoes 2.62075
lfemur -36.4777 -12.0935 -9.55758
ltibia 21.3289
lfoot -19.2296 22.0345
ltoes -3.89022
2933
root 4.32744 15.5497 3.14487 -354.639 43.3374 -367.868
lowerback -7.29387 1.09996 6.36259
upperback -5.64499 1.22111 0.340448
thorax -1.6591 0.471176 -3.1451
lowerneck -13.155 4.01999 10.5499
upperneck 41.527 6.14732 -5.0026
head 18.3205 3.85257 -2.97229
rclavicle 7.66812e-014 -4.77083e-015
rhumerus -35.4928 -10.5712 -74.8204
rradius 28.982
rwrist 7.96136
rhand -13.9238 -6.61385
rfingers 7.12502
rthumb 12.2026 -36.2379
lclavicle 7.66812e-014 -4.77083e-015
lhumerus -44.2179 8.50076 75.5541
lradius 32.5513
lwrist -20.7706
lhand -3.90953 9.52082
lfingers 7.12502
lthumb 21.8408 38.3083
rfemur 1.95708 5.24865 30.4416
rtibia 8.10795
rfoot -15.8828 -8.88911
rtoes 1.99399
lfemur -36.2246 -11.6206 -9.92764
ltibia 21.7573
lfoot -18.512 22.7156
ltoes -3.31827
2934
root 4.41908 15.5456 3.20994 -354.608 43.1341 -367.828
lowerback -7.43951 1.14262 6.32936
upperback -5.68159 1.27023 0.27354
thorax -1.611 0.496582 -3.19083
lowerneck -13.1163 4.05606 10.6217
upperneck 41.5557 6.20384 -5.03089
head 18.3409 3.88502 -2.98872
rclavicle 3.86636e-014 -4.37326e-015
rhumerus -35.6272 -10.5093 -75.0201
rradius 29.0536
rwrist 7.90178
rhand -13.8422 -6.57329
rfingers 7.12502
rthumb 12.2813 -36.1927
lclavicle 3.86636e-014 -4.37326e-015
lhumerus -44.4702 8.95259 75.0202
lradius 31.9033
lwrist -21.3078
lhand -3.73867 9.57877
lfingers 7.12502
lthumb 22.0049 38.347
rfemur 3.07538 5.28288 30.3362
rtibia 6.79453
rfoot -15.4138 -8.72444
rtoes 1.27826
lfemur -35.9995 -11.1317 -10.331
ltibia 22.224
lfoot -17.6674 23.5023
ltoes -2.37679
2935
root 4.51211 15.5452 3.27451 -354.541 42.9264 -367.735
lowerback -7.58026 1.18247 6.26236
upperback -5.72281 1.31813 0.194446
thorax -1.57063 0.521798 -3.23032
lowerneck -13.0736 4.09521 10.7075
upperneck 41.5877 6.2642 -5.06465
head 18.3641 3.92079 -3.00965
rclavicle 1.91579e-014 5.56597e-015
rhumerus -35.7706 -10.4733 -75.204
rradius 29.1032
rwrist 7.86415
rhand -13.7774 -6.54032
rfingers 7.12502
rthumb 12.3437 -36.1559
lclavicle 1.91579e-014 5.56597e-015
lhumerus -44.7374 9.39673 74.4743
lradius 31.282
lwrist -21.8489
lhand -3.56597 9.65814
lfingers 7.12502
lthumb 22.1707 38.4068
rfemur 4.35154 5.31982 30.1789
rtibia 5.15564
rfoot -14.7403 -8.53193
rtoes 0.486707
lfemur -35.7866 -10.6596 -10.7632
ltibia 22.6834
lfoot -16.7247 24.3021
ltoes -1.00983
2936
root 4.60614 15.5476 3.33846 -354.432 42.7178 -367.575
lowerback -7.71192 1.21713 6.14813
upperback -5.76446 1.36253 0.100029
thorax -1.53626 0.546106 -3.25951
lowerneck -13.0388 4.13824 10.803
upperneck 41.627 6.32658 -5.09675
head 18.3949 3.95924 -3.03116
rclavicle 1.77415e-014 -5.1684e-015
rhumerus -35.9106 -10.4698 -75.3729
rradius 29.1199
rwrist 7.86617
rhand -13.7251 -6.5247
rfingers 7.12502
rthumb 12.3941 -36.1373
lclavicle 1.77415e-014 -5.1684e-015
lhumerus -45.0078 9.84217 73.9097
lradius 30.6768
lwrist -22.4065
lhand -3.39846 9.72646
lfingers 7.12502
lthumb 22.3315 38.4559
rfemur 5.85731 5.35542 29.9579
rtibia 3.05242
rfoot -13.7877 -8.29971
rtoes -0.38865
lfemur -35.5615 -10.2056 -11.2328
ltibia 23.0962
lfoot -15.6818 24.9815
ltoes 0.70103
2937
root 4.70132 15.5519 3.402 -354.272 42.5163 -367.325
lowerback -7.83272 1.2463 5.97366
upperback -5.8027 1.40378 -0.0176006
thorax -1.50482 0.570059 -3.27924
lowerneck -13.0172 4.18154 10.9027
upperneck 41.6755 6.38378 -5.12093
head 18.4344 3.99742 -3.05069
rclavicle -2.8625e-014 7.95139e-015
rhumerus -36.0486 -10.5176 -75.5169
rradius 29.1007
rwrist 7.92574
rhand -13.6899 -6.51267
rfingers 7.12502
rthumb 12.4281 -36.1232
lclavicle -2.8625e-014 7.95139e-015
lhumerus -45.2732 10.2801 73.3288
lradius 30.0871
lwrist -22.9819
lhand -3.2378 9.79401
lfingers 7.12502
lthumb 22.4857 38.5049
rfemur 7.84245 5.38111 29.6509
rtibia 0
rfoot -12.3199 -7.97596
rtoes -1.27882
lfemur -35.293 -9.75312 -11.776
ltibia 23.4324
lfoot -14.5001 25.4214
ltoes 2.58037
2938
root 4.79766 15.557 3.46559 -354.081 42.3071 -366.992
lowerback -7.92928 1.27562 5.74139
upperback -5.83642 1.45025 -0.156923
thorax -1.48184 0.597645 -3.28894
lowerneck -13.0065 4.22354 11.005
upperneck 41.7356 6.43307 -5.13364
head 18.4828 4.03464 -3.06678
rclavicle 7.67806e-015 -9.93923e-015
rhumerus -36.2025 -10.63 -75.628
rradius 29.0551
rwrist 8.07071
rhand -13.6704 -6.49866
rfingers 7.12502
rthumb 12.4469 -36.108
lclavicle 7.67806e-015 -9.93923e-015
lhumerus -45.5382 10.7121 72.7259
lradius 29.5142
lwrist -23.5895
lhand -3.0857 9.83917
lfingers 7.12502
lthumb 22.6317 38.5323
rfemur 8.3367 5.40022 29.2811
rtibia 1.27222e-014
rfoot -12.3301 -7.92366
rtoes -2.22563
lfemur -34.9514 -9.28297 -12.3971
ltibia 23.6852
lfoot -13.1976 25.5498
ltoes 4.47881
2939
root 4.89413 15.5622 3.52862 -353.875 42.095 -366.609
lowerback -7.99707 1.30297 5.46619
upperback -5.86961 1.49881 -0.305168
thorax -1.47453 0.626918 -3.28404
lowerneck -13.0032 4.26388 11.1029
upperneck 41.7998 6.47784 -5.13989
head 18.5348 4.07027 -3.0798
rclavicle 5.3324e-014 3.97569e-016
rhumerus -36.3682 -10.7889 -75.701
rradius 28.9854
rwrist 8.29934
rhand -13.6614 -6.46578
rfingers 7.12502
rthumb 12.4555 -36.0746
lclavicle 5.3324e-014 3.97569e-016
lhumerus -45.7999 11.1435 72.1102
lradius 28.9618
lwrist -24.2209
lhand -2.93819 9.86193
lfingers 7.12502
lthumb 22.7733 38.5377
rfemur 8.84178 5.41691 28.8623
rtibia 1.59028e-014
rfoot -12.2827 -7.85629
rtoes -3.23575
lfemur -34.556 -8.76705 -13.0872
ltibia 23.8609
lfoot -11.7885 25.3227
ltoes 6.25367
2940
root 4.99022 15.568 3.59097 -353.671 41.8849 -366.206
lowerback -8.03319 1.3285 5.16845
upperback -5.90794 1.54877 -0.453612
thorax -1.49055 0.65691 -3.26713
lowerneck -12.993 4.30129 11.197
upperneck 41.8627 6.51858 -5.14211
head 18.5833 4.10446 -3.09102
rclavicle 1.02026e-013 1.86858e-014
rhumerus -36.5607 -10.9877 -75.7315
rradius 28.9061
rwrist 8.59843
rhand -13.6482 -6.41281
rfingers 7.12502
rthumb 12.4683 -36.0209
lclavicle 1.02026e-013 1.86858e-014
lhumerus -46.0696 11.5674 71.4886
lradius 28.4444
lwrist -24.8599
lhand -2.79361 9.87503
lfingers 7.12502
lthumb 22.912 38.5337
rfemur 9.3511 5.4291 28.4203
rtibia -2.8625e-014
rfoot -12.1653 -7.76522
rtoes -4.32233
lfemur -34.1273 -8.22619 -13.8108
ltibia 23.9812
lfoot -10.3219 24.7976
ltoes 7.95486
